<svg xmlns="http://www.w3.org/2000/svg" width="189" height="45" viewBox="0 0 189 45">
  <g fill="none" fill-rule="evenodd">
    <path fill="#C0CDD6" d="M43.963,0.923 L0.001,0.924 L0.001,44.89 L43.962,44.89 C48.926,30.734 48.94,15.097 43.963,0.923"/>
    <path fill="#004576" d="M87.924,44.89 L43.963,44.89 C48.927,30.734 48.939,15.097 43.962,0.923 L87.924,0.924 L87.924,44.89"/>
    <path fill="#FFFFFE" d="M83.454 8.987C83.812 8.587 83.778 8.263 83.378 8.263L81.414 8.263C81.015 8.263 80.814 8.22 80.172 8.862L74.687 14.804 74.672 8.987C74.672 8.587 74.348 8.263 73.948 8.263L72.615 8.263C72.215 8.263 71.891 8.587 71.891 8.987L71.89 22.201C71.89 22.601 72.214 22.925 72.614 22.925L73.953 22.925C74.353 22.925 74.677 22.601 74.677 22.201L74.678 18.746 77.114 16.114 80.876 22.201C81.121 22.601 81.465 22.925 81.865 22.925L83.874 22.925C84.274 22.925 84.4 22.601 84.155 22.201L78.966 14.045 83.454 8.987M51.285 22.201C51.285 22.601 51.61 22.925 52.01 22.925L53.475 22.925C53.874 22.925 54.199 22.601 54.199 22.201L54.205 8.987C54.205 8.587 53.881 8.263 53.481 8.263L52.017 8.263C51.617 8.263 51.293 8.587 51.293 8.987L51.285 22.201M65.958 8.987C65.958 8.587 66.282 8.263 66.682 8.263L68.13 8.263C68.53 8.263 68.854 8.587 68.854 8.987L68.852 22.201C68.852 22.601 68.528 22.925 68.128 22.925L66.69 22.925C66.291 22.925 65.967 22.601 65.967 22.201L65.961 16.758 60.136 16.758 60.137 22.201C60.137 22.601 59.813 22.925 59.413 22.925L57.966 22.925C57.566 22.925 57.242 22.601 57.242 22.201L57.242 8.987C57.242 8.587 57.566 8.263 57.966 8.263L59.417 8.263C59.817 8.263 60.141 8.587 60.141 8.987L60.136 14.303 65.961 14.303 65.958 8.987"/>
    <path fill="#D8232E" d="M8.429,18.446 L8.429,9.098 C8.429,8.301 9.047,7.977 9.477,7.977 L35.477,7.977 C35.477,7.977 35.226,10.805 27.634,11.185 C18.053,11.664 10.197,13.584 8.429,18.446"/>
    <path fill="#004576" d="M35.524,27.4 L35.524,36.749 C35.524,37.546 34.906,37.869 34.476,37.869 L8.476,37.869 C8.476,37.869 8.727,35.042 16.319,34.662 C25.901,34.183 33.756,32.263 35.524,27.4"/>
    <path fill="#F3B229" d="M35.179,14.867 C36.615,13.617 32.187,11.742 32.187,11.742 L29.033,17.464 C29.033,17.464 32.865,16.642 35.179,14.867"/>
    <path fill="#F3B229" d="M8.418,25.077 C8.553,26.355 8.999,27.442 9.662,28.37 C11.41,30.819 14.948,32.616 18.009,33.438 C20.43,24.913 35.494,23.552 35.496,19.755 C35.498,15.435 35.498,16.291 35.489,16.1759739 C25.391,21.759 17.53,17.005 8.418,25.077"/>
    <polyline fill="#1A1919" points="95.662 22.72 103.094 22.72 103.094 21.108 98.405 21.108 102.885 14.199 102.885 12.755 95.935 12.755 95.935 14.199 100.142 14.199 95.662 21.108 95.662 22.72"/>
    <path fill="#1A1919" d="M110.399 22.72L112.932 22.72 112.932 12.755 110.399 12.755 110.399 16.67C110.399 18.261 110.022 21.129 108.389 21.129 107.447 21.129 107.112 20.208 107.112 18.972L107.112 12.755 104.579 12.755 104.579 19.622C104.579 21.736 105.374 22.95 107.3 22.95 109.205 22.95 109.98 21.296 110.357 20.48L110.399 20.48 110.399 22.72M121.846 22.72L124.588 22.72 124.588 16.397 125.446 16.397C127.603 16.397 128 17.361 128.524 19.998L129.047 22.72 131.79 22.72 130.973 18.889C130.617 17.214 130.324 15.832 128.189 15.434L128.189 15.393C129.487 15.058 131.203 14.283 131.203 12.043 131.203 8.756 128.335 8.275 125.132 8.275L121.846 8.275 121.846 22.72zM124.588 9.803L125.132 9.803C126.828 9.803 128.461 9.95 128.461 12.252 128.461 14.367 127.079 14.869 125.132 14.869L124.588 14.869 124.588 9.803 124.588 9.803zM137.567 22.95C140.394 22.95 142.152 21.526 142.152 17.737 142.152 13.948 140.394 12.525 137.567 12.525 134.741 12.525 132.962 13.948 132.962 17.737 132.962 21.526 134.741 22.95 137.567 22.95zM135.704 17.737C135.704 15.539 135.851 13.509 137.567 13.509 139.305 13.509 139.41 15.539 139.41 17.737 139.41 19.935 139.305 21.966 137.567 21.966 135.851 21.966 135.704 19.935 135.704 17.737L135.704 17.737zM149.371 12.901C149.015 12.818 148.136 12.525 147.047 12.525 144.514 12.525 143.488 13.969 143.488 15.476 143.488 16.439 143.76 17.005 144.849 17.926 145.854 18.763 147.717 19.496 147.717 20.501 147.717 21.108 147.152 21.506 146.231 21.506 145.037 21.506 144.032 20.689 143.572 20.291L143.572 22.552C144.011 22.678 144.974 22.95 146.189 22.95 148.24 22.95 150.02 22.134 150.02 19.956 150.02 18.805 149.622 18.177 148.533 17.277 147.549 16.439 145.707 15.728 145.707 14.765 145.707 14.074 146.419 13.822 146.942 13.822 147.947 13.822 148.785 14.472 149.371 14.974L149.371 12.901M157.574 21.359C157.218 21.485 156.799 21.506 156.443 21.506 155.522 21.506 155.145 21.192 155.145 19.873L155.145 13.969 157.95 13.969 157.95 12.755 155.145 12.755 155.145 8.882 152.612 10.41 152.612 12.755 150.749 12.755 150.749 13.969 152.612 13.969 152.612 20.187C152.612 22.447 153.826 22.95 155.794 22.95 156.38 22.95 156.967 22.887 157.574 22.824L157.574 21.359M163.327 22.95C166.154 22.95 167.912 21.526 167.912 17.737 167.912 13.948 166.154 12.525 163.327 12.525 160.501 12.525 158.722 13.948 158.722 17.737 158.722 21.526 160.501 22.95 163.327 22.95zM161.464 17.737C161.464 15.539 161.611 13.509 163.327 13.509 165.065 13.509 165.17 15.539 165.17 17.737 165.17 19.935 165.065 21.966 163.327 21.966 161.611 21.966 161.464 19.935 161.464 17.737L161.464 17.737zM177.622 21.275C177.015 21.485 176.429 21.652 175.654 21.652 173.372 21.652 172.074 19.077 172.074 16.481 172.074 15.058 172.577 13.509 173.728 13.509 174.817 13.509 174.984 14.367 174.984 16.125L177.685 16.125C177.685 13.864 176.785 12.525 173.833 12.525 170.714 12.525 169.332 14.472 169.332 17.34 169.332 21.338 171.614 22.95 174.524 22.95 175.801 22.95 176.596 22.72 177.622 22.343L177.622 21.275"/>
    <polyline fill="#1A1919" points="179.065 22.72 181.598 22.72 181.598 17.884 181.64 17.884 184.968 22.72 188.067 22.72 183.775 16.984 187.606 12.755 184.801 12.755 181.64 16.607 181.598 16.607 181.598 8.275 179.065 8.275 179.065 22.72"/>
  </g>
</svg>
